HIERARCHY
ROOT Hips
{
	OFFSET -0.001795 -0.223333 0.028219
	CHANNELS 6 Xposition Yposition Zposition Zrotation Yrotation Xrotation 
	JOINT LeftUpLeg
	{
		OFFSET 0.069520 -0.091406 -0.006815
		CHANNELS 3 Zrotation Yrotation Xrotation
		JOINT LeftLeg
		{
			OFFSET 0.034277 -0.375199 -0.004496
			CHANNELS 3 Zrotation Yrotation Xrotation
			JOINT LeftFoot
			{
				OFFSET -0.013596 -0.397961 -0.043693
				CHANNELS 3 Zrotation Yrotation Xrotation
				JOINT LeftToe
				{
					OFFSET 0.026358 -0.055791 0.119288
					CHANNELS 3 Zrotation Yrotation Xrotation
					End Site
					{
						OFFSET 0.000000 0.000000 0.000000
					}
				}
			}
		}
	}
	JOINT RightUpLeg
	{
		OFFSET -0.067670 -0.090522 -0.004320
		CHANNELS 3 Zrotation Yrotation Xrotation
		JOINT RightLeg
		{
			OFFSET -0.038290 -0.382569 -0.008850
			CHANNELS 3 Zrotation Yrotation Xrotation
			JOINT RightFoot
			{
				OFFSET 0.015774 -0.398415 -0.042312
				CHANNELS 3 Zrotation Yrotation Xrotation
				JOINT RightToe
				{
					OFFSET -0.025372 -0.048144 0.123348
					CHANNELS 3 Zrotation Yrotation Xrotation
					End Site
					{
						OFFSET 0.000000 0.000000 0.000000
					}
				}
			}
		}
	}
	JOINT Spine
	{
		OFFSET -0.002533 0.108963 -0.026696
		CHANNELS 3 Zrotation Yrotation Xrotation
		JOINT Spine1
		{
			OFFSET 0.005487 0.135180 0.001092
			CHANNELS 3 Zrotation Yrotation Xrotation
			JOINT Spine2
			{
				OFFSET 0.001457 0.052922 0.025425
				CHANNELS 3 Zrotation Yrotation Xrotation
				JOINT Neck
				{
					OFFSET -0.002778 0.213870 -0.042857
					CHANNELS 3 Zrotation Yrotation Xrotation
					JOINT Head
					{
						OFFSET 0.005152 0.064970 0.051349
						CHANNELS 3 Zrotation Yrotation Xrotation
						End Site
						{
							OFFSET 0.000000 0.000000 0.000000
						}
					}
				}
				JOINT LeftShoulder
				{
					OFFSET 0.078845 0.121749 -0.034090
					CHANNELS 3 Zrotation Yrotation Xrotation
					JOINT LeftArm
					{
						OFFSET 0.090977 0.030469 -0.008868
						CHANNELS 3 Zrotation Yrotation Xrotation
						JOINT LeftForeArm
						{
							OFFSET 0.259612 -0.012772 -0.027456
							CHANNELS 3 Zrotation Yrotation Xrotation
							JOINT LeftHand
							{
								OFFSET 0.249234 0.008986 -0.001171
								CHANNELS 3 Zrotation Yrotation Xrotation
								End Site
								{
									OFFSET 0.000000 0.000000 0.000000
								}
							}
						}
					}
				}
				JOINT RightShoulder
				{
					OFFSET -0.081759 0.118833 -0.038615
					CHANNELS 3 Zrotation Yrotation Xrotation
					JOINT RightArm
					{
						OFFSET -0.096012 0.032551 -0.009143
						CHANNELS 3 Zrotation Yrotation Xrotation
						JOINT RightForeArm
						{
							OFFSET -0.253742 -0.013329 -0.021401
							CHANNELS 3 Zrotation Yrotation Xrotation
							JOINT RightHand
							{
								OFFSET -0.255298 0.007772 -0.005559
								CHANNELS 3 Zrotation Yrotation Xrotation
								End Site
								{
									OFFSET 0.000000 0.000000 0.000000
								}
							}
						}
					}
				}
			}
		}
	}
}
MOTION
Frames: 16
Frame Time: 0.050000
-0.463986 0.934059 0.969119 179.300345 -49.293414 176.656749 9.925187 9.191293 9.896878 -1.438752 2.219525 -4.397094 -9.475892 3.735123 12.606382 0.000000 0.000000 0.000000 -2.964042 7.910578 10.625976 3.044641 3.815617 -6.170301 -33.747963 -5.876413 27.645144 0.000000 0.000000 0.000000 -4.900978 1.179094 6.819978 4.167909 1.220654 -27.897633 -1.913118 -1.773292 35.375045 -0.634971 -0.890555 -21.066220 0.000000 0.000000 0.000000 8.806707 9.605980 0.240472 8.621329 -36.491985 2.519735 102.073691 8.201472 59.729317 0.000000 0.000000 0.000000 -5.179506 -7.191012 -29.675495 27.331942 -25.471752 -12.515130 139.766343 59.889028 77.625213 0.000000 0.000000 0.000000 
-0.464113 0.934085 0.969914 179.235720 -49.611303 176.763421 9.915394 9.137548 9.860674 -1.582222 2.234989 -4.601421 -9.015747 3.790903 12.717317 0.000000 0.000000 0.000000 -2.948345 7.724899 10.377377 2.801917 3.627259 -5.859183 -33.524968 -5.931457 27.078160 0.000000 0.000000 0.000000 -4.551851 1.106271 7.068667 3.353775 0.985737 -28.060843 -2.082286 -1.683502 35.564186 -0.065047 -0.637716 -20.296649 0.000000 0.000000 0.000000 8.945370 9.451601 0.235269 9.438649 -36.190545 2.390357 102.792559 8.718736 60.742051 0.000000 0.000000 0.000000 -4.943625 -7.616431 -30.231180 25.129298 -24.755126 -11.055189 140.844802 58.707654 77.632356 0.000000 0.000000 0.000000 
-0.464121 0.934171 0.970739 179.571047 -49.842456 176.629334 10.055210 9.145881 9.685027 -1.612190 2.194780 -4.814361 -8.874693 3.760080 12.652125 0.000000 0.000000 0.000000 -2.860570 7.541419 10.172794 2.753958 3.618331 -5.878592 -32.639710 -6.057681 26.720149 0.000000 0.000000 0.000000 -4.263914 0.997882 6.897805 2.984091 0.853744 -27.973293 -2.202336 -1.492393 35.599420 0.180590 -0.870230 -20.608337 0.000000 0.000000 0.000000 9.276211 8.962604 0.352216 9.465425 -35.861581 2.384280 103.346337 8.339486 60.807710 0.000000 0.000000 0.000000 -4.800872 -7.853268 -30.419763 23.682106 -24.595089 -10.236821 135.427005 58.285622 69.778702 0.000000 0.000000 0.000000 
-0.464212 0.934144 0.971495 179.890209 -49.706463 176.440264 10.116019 9.146213 9.394381 -1.540687 2.196093 -4.644846 -8.845909 3.925164 12.371025 0.000000 0.000000 0.000000 -2.679705 7.486424 10.207199 2.755411 3.656817 -5.954091 -31.848853 -6.091851 26.087309 0.000000 0.000000 0.000000 -4.133341 0.968792 6.930994 2.765648 0.771397 -27.843796 -2.056636 -1.446829 35.572753 -0.346232 -0.651836 -20.219297 0.000000 0.000000 0.000000 8.605289 8.914698 0.889441 11.031871 -35.684411 2.023512 103.534264 9.130106 60.761611 0.000000 0.000000 0.000000 -4.465398 -8.056290 -31.146332 22.462292 -25.199425 -9.779682 127.984803 55.133674 56.492838 0.000000 0.000000 0.000000 
-0.464538 0.934296 0.972208 -179.827941 -50.075125 176.138365 10.402202 9.279148 9.537611 -1.586159 2.196581 -4.575827 -8.982516 3.676958 12.373198 0.000000 0.000000 0.000000 -2.517253 7.399590 10.287846 2.549436 3.532933 -5.887127 -30.888321 -6.310854 25.630989 0.000000 0.000000 0.000000 -4.053437 0.970323 7.099676 2.773618 0.735629 -27.662224 -2.263351 -1.763018 35.489297 -0.461543 -0.770164 -20.429783 0.000000 0.000000 0.000000 8.688792 8.687528 1.014775 11.340871 -34.570706 1.804016 103.923050 9.212020 61.211850 0.000000 0.000000 0.000000 -4.076706 -8.223249 -31.852625 21.654701 -26.124679 -9.604447 119.033984 51.527965 42.307639 0.000000 0.000000 0.000000 
-0.465192 0.934426 0.972974 -179.498821 -50.140561 175.995143 10.642380 9.428212 9.699814 -1.491794 2.104430 -4.799008 -9.338954 3.418872 12.416552 0.000000 0.000000 0.000000 -2.553128 7.427230 10.348290 2.418585 3.613897 -6.377537 -29.311740 -6.439910 25.568581 0.000000 0.000000 0.000000 -4.131117 0.964809 6.937579 2.922095 0.701092 -27.263497 -2.138099 -2.141193 35.250656 -1.152043 -0.784917 -20.659755 0.000000 0.000000 0.000000 7.877638 8.635192 1.654143 13.195755 -34.418831 1.431316 103.753741 10.314010 61.022102 0.000000 0.000000 0.000000 -3.424957 -7.912929 -32.588946 20.949527 -27.616773 -9.577281 112.814244 46.947216 31.090629 0.000000 0.000000 0.000000 
-0.466129 0.934773 0.973812 -179.357312 -49.986089 175.920632 10.575996 9.403742 9.687530 -1.323463 2.039754 -4.774352 -9.897141 3.303725 12.184882 0.000000 0.000000 0.000000 -2.556873 7.496466 10.436578 2.500660 3.615318 -6.276873 -29.199349 -6.423641 25.545106 0.000000 0.000000 0.000000 -4.133622 0.962881 6.900953 3.329571 0.798457 -27.099204 -2.293414 -2.256426 35.131663 -1.450834 -0.658001 -20.528368 0.000000 0.000000 0.000000 7.699752 8.551883 2.008532 13.951461 -33.821481 1.228939 104.174100 10.980062 61.976613 0.000000 0.000000 0.000000 -2.917393 -7.686998 -33.607527 20.182059 -29.503936 -9.680297 107.121148 41.594029 20.548484 0.000000 0.000000 0.000000 
-0.467196 0.934912 0.974749 -179.370220 -49.793424 176.021687 10.396304 9.290102 9.471663 -1.148578 1.966175 -4.842231 -9.958764 3.328548 12.308822 0.000000 0.000000 0.000000 -2.918797 7.855297 10.705211 2.561971 3.719402 -6.659730 -28.840635 -6.543370 25.717755 0.000000 0.000000 0.000000 -4.164317 0.938141 6.701670 3.560906 0.824265 -26.870999 -2.104240 -2.342644 35.098665 -1.786098 -0.745960 -20.897207 0.000000 0.000000 0.000000 7.178150 8.371391 2.639743 14.832276 -33.829755 1.038429 105.008918 11.652729 62.722257 0.000000 0.000000 0.000000 -2.508672 -7.553946 -34.246313 20.530913 -31.230867 -10.337473 102.679186 37.080883 13.065429 0.000000 0.000000 0.000000 
-0.468312 0.935064 0.975839 -179.056938 -49.855267 175.993763 10.486535 9.269118 9.117950 -1.028551 1.950938 -4.531677 -10.783641 3.012581 12.013741 0.000000 0.000000 0.000000 -2.853100 7.712377 10.532175 2.322727 3.672844 -6.729704 -27.940556 -6.490468 25.142566 0.000000 0.000000 0.000000 -3.913196 0.821115 6.366741 3.811792 0.887012 -26.745053 -2.095614 -2.124049 35.003910 -2.140776 -0.638731 -20.627853 0.000000 0.000000 0.000000 7.252011 8.000271 2.911089 14.443334 -34.586894 1.149320 105.314645 11.787027 63.006329 0.000000 0.000000 0.000000 -1.767366 -7.470545 -35.271185 20.274660 -33.830582 -10.901047 98.093331 32.746763 7.473697 0.000000 0.000000 0.000000 
-0.469305 0.935101 0.976945 -178.965339 -49.966933 175.909482 10.396868 9.163237 8.827418 -1.048964 2.016887 -4.189418 -11.199638 2.782017 11.957926 0.000000 0.000000 0.000000 -2.899569 7.846470 10.750528 2.341149 3.631820 -6.663087 -28.180636 -6.614877 25.320800 0.000000 0.000000 0.000000 -3.819355 0.772942 6.207312 4.015103 0.886592 -26.358170 -2.014301 -2.103847 34.983911 -2.144175 -0.586396 -20.455603 0.000000 0.000000 0.000000 6.903868 7.641912 3.459993 14.693289 -35.514237 1.136230 106.262112 12.501451 63.888898 0.000000 0.000000 0.000000 -1.068289 -7.213996 -36.012793 21.249349 -35.640257 -11.812984 92.236967 30.615067 4.722695 0.000000 0.000000 0.000000 
-0.470166 0.935330 0.978028 -178.836090 -49.780600 175.871545 10.466303 9.203897 8.635870 -1.191735 2.151481 -3.854545 -11.883610 2.656571 11.480876 0.000000 0.000000 0.000000 -3.004831 8.026060 10.889055 2.194708 3.677406 -7.008073 -27.444939 -6.578960 25.129715 0.000000 0.000000 0.000000 -3.584760 0.700837 6.088105 3.958170 0.825796 -26.004747 -1.541353 -1.434750 34.586048 -2.534933 -0.479690 -20.016781 0.000000 0.000000 0.000000 6.560847 7.088722 3.904381 14.701149 -36.950293 1.217574 107.466354 12.616871 64.024286 0.000000 0.000000 0.000000 0.020910 -6.881713 -36.625041 21.980457 -38.209559 -12.768389 87.835815 29.271886 3.933701 0.000000 0.000000 0.000000 
-0.470865 0.935515 0.979014 -178.646834 -49.953739 175.680232 10.566148 9.206629 8.355088 -1.344722 2.246302 -3.672921 -12.361114 2.175808 11.884822 0.000000 0.000000 0.000000 -3.138805 8.146448 11.015966 2.387122 3.816061 -7.289813 -28.576858 -6.717639 26.479668 0.000000 0.000000 0.000000 -3.419224 0.655384 6.113305 4.291698 0.872355 -25.637233 -1.653514 -1.107938 34.383039 -1.954535 -0.467465 -19.518212 0.000000 0.000000 0.000000 6.468110 6.471150 4.306745 15.555047 -39.201089 1.357632 108.255921 13.742407 64.826941 0.000000 0.000000 0.000000 1.073976 -6.312062 -37.340889 23.831034 -40.118447 -14.027027 81.366670 28.792502 3.546523 0.000000 0.000000 0.000000 
-0.471474 0.935806 0.979985 -178.485328 -49.952787 175.491909 10.724345 9.280120 8.160842 -1.457202 2.321586 -3.542516 -12.805761 1.969343 11.740993 0.000000 0.000000 0.000000 -3.246373 8.194892 10.968728 2.288964 3.728900 -7.133736 -27.871938 -6.634257 26.649036 0.000000 0.000000 0.000000 -3.150106 0.589555 6.130577 4.358742 0.878843 -25.514188 -1.319899 -0.441807 34.194329 -2.174632 -0.283547 -18.829078 0.000000 0.000000 0.000000 6.740210 5.274564 4.901986 16.292745 -40.897165 1.491343 109.117037 15.414629 66.549544 0.000000 0.000000 0.000000 2.304533 -5.467350 -37.809546 24.785645 -41.732382 -14.601116 75.530597 28.486481 3.310327 0.000000 0.000000 0.000000 
-0.472063 0.936325 0.981043 -178.619886 -50.054393 175.649552 10.735776 9.240340 7.849960 -1.688315 2.429668 -3.501752 -12.952155 1.663558 12.033350 0.000000 0.000000 0.000000 -3.429828 8.313888 11.050463 2.391507 3.767968 -7.231214 -28.115398 -6.756977 27.281084 0.000000 0.000000 0.000000 -3.224788 0.603334 6.142473 4.434553 0.882629 -25.460877 -1.131965 -0.291805 34.064889 -1.955216 -0.281825 -18.540440 0.000000 0.000000 0.000000 6.705904 4.521526 5.370678 18.016748 -43.045113 1.498655 110.463489 17.683354 69.252970 0.000000 0.000000 0.000000 2.946533 -4.898841 -37.765865 26.649908 -42.116145 -15.519294 70.054007 28.439400 2.827587 0.000000 0.000000 0.000000 
-0.472703 0.936471 0.982179 -178.393157 -49.746333 175.559703 11.013287 9.492855 8.137011 -1.984933 2.453877 -4.194104 -13.618612 1.449907 11.871290 0.000000 0.000000 0.000000 -3.416357 8.196754 10.798109 2.566069 3.811528 -7.013116 -28.424365 -6.469562 27.269845 0.000000 0.000000 0.000000 -2.965996 0.522252 5.981039 4.634035 0.961403 -25.436905 -0.954235 0.309026 33.940068 -1.831739 -0.138896 -18.116574 0.000000 0.000000 0.000000 7.345527 3.387442 5.910233 19.052506 -44.985423 1.719900 111.196520 18.774032 70.739295 0.000000 0.000000 0.000000 3.389389 -3.882647 -37.614144 28.317338 -42.628430 -16.401432 65.996106 28.345757 2.336660 0.000000 0.000000 0.000000 
-0.473292 0.937014 0.983263 -178.435641 -49.488336 175.569808 11.029293 9.592745 8.544243 -2.405532 2.551013 -4.873869 -13.205775 1.604513 11.849968 0.000000 0.000000 0.000000 -3.592882 8.421930 10.975610 2.664158 3.945594 -7.354954 -27.059565 -6.619506 26.531006 0.000000 0.000000 0.000000 -3.039297 0.510313 5.695209 4.827556 0.967644 -24.931042 -1.047818 0.175556 33.581197 -1.930594 0.232611 -17.469227 0.000000 0.000000 0.000000 7.048717 2.696935 6.880447 22.050010 -46.665230 1.222300 112.567842 19.509735 71.661992 0.000000 0.000000 0.000000 3.782305 -2.863690 -37.719492 29.766518 -42.558712 -16.980799 63.066835 27.728031 1.678871 0.000000 0.000000 0.000000 
